<?xml version="1.0" encoding="utf-8"?>
<!-- Generator: Adobe Illustrator 16.0.4, SVG Export Plug-In . SVG Version: 6.00 Build 0)  -->
<!DOCTYPE svg PUBLIC "-//W3C//DTD SVG 1.1//EN" "http://www.w3.org/Graphics/SVG/1.1/DTD/svg11.dtd">
<svg version="1.1" xmlns="http://www.w3.org/2000/svg" xmlns:xlink="http://www.w3.org/1999/xlink" x="0px" y="0px" width="96px"
	 height="44px" viewBox="0 0 96 44" enable-background="new 0 0 96 44" xml:space="preserve">
<g id="Global_Nav_Large">
	<g id="Where_to_Buy">
		<g>
			<path fill="#FFFFFF" d="M12.445,21.797c-0.405,1.494-0.693,2.742-0.864,3.744H11.55c-0.075-0.458-0.177-0.997-0.305-1.616
				s-0.288-1.328-0.48-2.128L9.39,16.213H8.157l-1.488,5.6c-0.234,0.896-0.43,1.654-0.584,2.272
				c-0.155,0.619-0.259,1.109-0.312,1.472H5.725c-0.085-0.522-0.194-1.09-0.328-1.704c-0.134-0.613-0.29-1.288-0.472-2.024
				l-1.328-5.616h-1.28l2.72,10.784h1.248l1.585-5.76c0.224-0.8,0.405-1.496,0.544-2.088c0.139-0.592,0.24-1.08,0.305-1.464h0.031
				c0.053,0.427,0.145,0.934,0.271,1.52c0.129,0.587,0.283,1.264,0.465,2.032l1.408,5.76h1.232l3.039-10.784h-1.231L12.445,21.797z
				 M20.468,19.109c-0.49,0-0.957,0.125-1.399,0.376c-0.442,0.25-0.787,0.589-1.032,1.016h-0.032v-4.848h-1.216v11.344h1.216v-4.704
				c0-0.298,0.056-0.578,0.168-0.84c0.112-0.261,0.262-0.49,0.448-0.688c0.187-0.197,0.402-0.354,0.648-0.472
				c0.245-0.117,0.506-0.176,0.783-0.176c1.217,0,1.824,0.789,1.824,2.368v4.512h1.232v-4.656c0-1.013-0.24-1.805-0.72-2.376
				C21.909,19.395,21.269,19.109,20.468,19.109z M30.932,20.093c-0.267-0.314-0.589-0.56-0.968-0.735
				c-0.379-0.176-0.809-0.265-1.288-0.265c-0.534,0-1.017,0.104-1.448,0.312s-0.801,0.496-1.104,0.864s-0.542,0.805-0.712,1.312
				c-0.171,0.507-0.256,1.064-0.256,1.672c0,0.576,0.082,1.102,0.248,1.576c0.165,0.475,0.408,0.885,0.728,1.232
				c0.32,0.347,0.707,0.614,1.16,0.8c0.454,0.187,0.969,0.28,1.544,0.28c0.982,0,1.809-0.16,2.48-0.48l-0.224-0.88
				c-0.598,0.267-1.291,0.4-2.08,0.4c-0.833,0-1.48-0.253-1.944-0.76c-0.465-0.506-0.707-1.218-0.729-2.136H31.7
				c0.031-0.16,0.047-0.368,0.047-0.624c0-0.522-0.068-1.002-0.207-1.44C31.401,20.784,31.198,20.408,30.932,20.093z M26.371,22.389
				c0.075-0.704,0.31-1.28,0.704-1.728s0.891-0.672,1.488-0.672c0.641,0,1.131,0.216,1.473,0.647
				c0.341,0.433,0.512,1.017,0.512,1.752H26.371z M37.062,19.109c-0.479,0-0.909,0.151-1.288,0.456
				c-0.378,0.304-0.659,0.712-0.84,1.224h-0.097v-1.52h-1.071c0.021,0.395,0.034,0.787,0.04,1.176
				c0.005,0.389,0.008,0.781,0.008,1.176v5.376h1.217v-4.176c0-0.374,0.047-0.718,0.144-1.032c0.096-0.314,0.229-0.584,0.399-0.808
				c0.171-0.224,0.377-0.4,0.616-0.528c0.24-0.128,0.505-0.192,0.792-0.192c0.086,0,0.166,0.003,0.24,0.008s0.145,0.013,0.208,0.024
				v-1.152c-0.054-0.01-0.109-0.019-0.168-0.024S37.136,19.109,37.062,19.109z M44.233,20.093c-0.267-0.314-0.59-0.56-0.968-0.735
				c-0.379-0.176-0.809-0.265-1.288-0.265c-0.533,0-1.017,0.104-1.448,0.312c-0.433,0.208-0.8,0.496-1.104,0.864
				c-0.304,0.368-0.541,0.805-0.712,1.312s-0.256,1.064-0.256,1.672c0,0.576,0.083,1.102,0.248,1.576s0.408,0.885,0.728,1.232
				c0.32,0.347,0.707,0.614,1.16,0.8c0.453,0.187,0.969,0.28,1.545,0.28c0.98,0,1.808-0.16,2.48-0.48l-0.225-0.88
				c-0.598,0.267-1.291,0.4-2.08,0.4c-0.832,0-1.48-0.253-1.944-0.76c-0.464-0.506-0.707-1.218-0.728-2.136h5.359
				c0.033-0.16,0.049-0.368,0.049-0.624c0-0.522-0.07-1.002-0.208-1.44C44.703,20.784,44.5,20.408,44.233,20.093z M39.673,22.389
				c0.074-0.704,0.31-1.28,0.704-1.728s0.891-0.672,1.488-0.672c0.64,0,1.131,0.216,1.472,0.647
				c0.342,0.433,0.513,1.017,0.513,1.752H39.673z M53.162,17.461l-1.2,0.4v1.408h-1.216v0.944h1.216v4.416
				c0,0.907,0.168,1.555,0.504,1.944c0.336,0.389,0.824,0.584,1.465,0.584c0.458,0,0.848-0.059,1.168-0.176l-0.064-0.944
				c-0.213,0.075-0.485,0.112-0.816,0.112c-0.703,0-1.056-0.506-1.056-1.52v-4.416h2.032v-0.944h-2.032V17.461z M62.576,20.221
				c-0.315-0.347-0.694-0.619-1.137-0.816s-0.937-0.296-1.479-0.296c-0.545,0-1.046,0.101-1.504,0.304
				c-0.459,0.203-0.852,0.482-1.177,0.84s-0.579,0.787-0.761,1.288c-0.181,0.501-0.271,1.051-0.271,1.648
				c0,0.576,0.088,1.107,0.264,1.592c0.177,0.485,0.422,0.907,0.736,1.264c0.314,0.357,0.691,0.635,1.129,0.832
				c0.437,0.197,0.922,0.296,1.455,0.296c0.555,0,1.059-0.101,1.513-0.304c0.453-0.203,0.845-0.485,1.177-0.848
				c0.33-0.362,0.586-0.794,0.768-1.296s0.271-1.056,0.271-1.664c0-0.576-0.085-1.106-0.256-1.592
				C63.133,20.984,62.89,20.568,62.576,20.221z M62.112,24.333c-0.123,0.379-0.291,0.709-0.505,0.992
				c-0.213,0.283-0.467,0.504-0.76,0.664c-0.294,0.16-0.616,0.24-0.968,0.24c-0.353,0-0.678-0.083-0.977-0.248
				c-0.299-0.165-0.552-0.386-0.76-0.664c-0.208-0.277-0.371-0.603-0.488-0.976c-0.117-0.374-0.176-0.768-0.176-1.184
				c0-0.448,0.056-0.861,0.168-1.24c0.111-0.378,0.274-0.707,0.488-0.984c0.213-0.277,0.469-0.496,0.768-0.656
				c0.299-0.16,0.635-0.24,1.008-0.24c0.363,0,0.691,0.08,0.984,0.24c0.293,0.16,0.544,0.376,0.752,0.647
				c0.208,0.272,0.368,0.598,0.48,0.977c0.111,0.378,0.168,0.781,0.168,1.208C62.296,23.546,62.234,23.955,62.112,24.333z
				 M74.505,21.221v-0.032c0.555-0.203,0.997-0.514,1.328-0.936c0.33-0.421,0.496-0.904,0.496-1.448c0-0.853-0.32-1.512-0.961-1.976
				c-0.64-0.464-1.557-0.696-2.752-0.696c-0.885,0-1.686,0.075-2.4,0.225v10.624c0.342,0.042,0.683,0.072,1.024,0.088
				c0.341,0.016,0.683,0.024,1.024,0.024c0.778,0,1.447-0.075,2.008-0.224s1.021-0.363,1.385-0.64c0.362-0.277,0.631-0.61,0.808-1
				c0.176-0.389,0.264-0.818,0.264-1.288c0-0.682-0.208-1.266-0.624-1.752C75.688,21.704,75.155,21.381,74.505,21.221z
				 M71.433,17.189c0.266-0.075,0.678-0.112,1.232-0.112c1.621,0,2.432,0.613,2.432,1.84c0,0.555-0.214,1.011-0.641,1.368
				c-0.426,0.357-0.997,0.536-1.711,0.536h-1.312V17.189z M74.696,25.565c-0.501,0.379-1.199,0.568-2.096,0.568
				c-0.512,0-0.902-0.027-1.168-0.08v-4.304h1.168c0.875,0,1.568,0.195,2.08,0.584c0.512,0.39,0.768,0.926,0.768,1.608
				C75.448,24.645,75.198,25.187,74.696,25.565z M85.054,24.949v-5.68h-1.216v4.784c0,0.288-0.056,0.56-0.168,0.816
				s-0.261,0.48-0.448,0.672c-0.187,0.192-0.405,0.342-0.656,0.448c-0.25,0.106-0.509,0.16-0.775,0.16
				c-1.174,0-1.76-0.853-1.76-2.56v-4.32h-1.217v4.544c0,1.088,0.227,1.92,0.68,2.496c0.454,0.576,1.092,0.864,1.912,0.864
				c1.143,0,1.979-0.48,2.513-1.44h0.112v1.264h1.088c-0.021-0.341-0.037-0.683-0.048-1.024S85.054,25.291,85.054,24.949z
				 M92.397,19.269l-1.584,4.656c-0.118,0.373-0.217,0.693-0.297,0.96s-0.146,0.491-0.199,0.672h-0.049
				c-0.074-0.309-0.154-0.597-0.24-0.864c-0.085-0.266-0.17-0.512-0.256-0.736l-1.728-4.688h-1.328l2.784,7.136
				c0.064,0.16,0.096,0.277,0.096,0.352c0,0.086-0.031,0.198-0.096,0.336c-0.256,0.576-0.598,1.074-1.024,1.496
				s-0.896,0.723-1.407,0.904l0.336,1.024c0.49-0.107,0.986-0.371,1.487-0.792s0.971-1.054,1.408-1.896
				c0.342-0.672,0.773-1.685,1.296-3.04l2.097-5.52H92.397z"/>
		</g>
	</g>
</g>

</svg>
